<svg xmlns="http://www.w3.org/2000/svg" width="400" height="400" viewBox="0 0 400 400">
  <!-- Champ d'etoiles statiques — scintillement via CSS animation -->
  <circle cx="45" cy="30" r="1" fill="#ed8ce6" opacity="0.6"/>
  <circle cx="120" cy="85" r="0.8" fill="#ed8ce6" opacity="0.4"/>
  <circle cx="200" cy="15" r="1.2" fill="#e2ed77" opacity="0.5"/>
  <circle cx="280" cy="60" r="0.7" fill="#ed8ce6" opacity="0.3"/>
  <circle cx="350" cy="25" r="1" fill="#ed8ce6" opacity="0.5"/>
  <circle cx="60" cy="140" r="0.9" fill="#e2ed77" opacity="0.4"/>
  <circle cx="170" cy="110" r="1.1" fill="#ed8ce6" opacity="0.6"/>
  <circle cx="310" cy="130" r="0.8" fill="#ed8ce6" opacity="0.3"/>
  <circle cx="375" cy="100" r="1" fill="#e2ed77" opacity="0.5"/>
  <circle cx="25" cy="210" r="1.2" fill="#ed8ce6" opacity="0.4"/>
  <circle cx="90" cy="190" r="0.7" fill="#ed8ce6" opacity="0.5"/>
  <circle cx="230" cy="175" r="1" fill="#e2ed77" opacity="0.6"/>
  <circle cx="340" cy="200" r="0.9" fill="#ed8ce6" opacity="0.3"/>
  <circle cx="150" cy="250" r="1.1" fill="#ed8ce6" opacity="0.5"/>
  <circle cx="50" cy="290" r="0.8" fill="#e2ed77" opacity="0.4"/>
  <circle cx="260" cy="270" r="1" fill="#ed8ce6" opacity="0.6"/>
  <circle cx="380" cy="260" r="0.7" fill="#ed8ce6" opacity="0.3"/>
  <circle cx="110" cy="330" r="1.2" fill="#e2ed77" opacity="0.5"/>
  <circle cx="200" cy="310" r="0.9" fill="#ed8ce6" opacity="0.4"/>
  <circle cx="320" cy="340" r="1" fill="#ed8ce6" opacity="0.6"/>
  <circle cx="30" cy="370" r="0.8" fill="#ed8ce6" opacity="0.3"/>
  <circle cx="180" cy="380" r="1.1" fill="#e2ed77" opacity="0.5"/>
  <circle cx="370" cy="375" r="0.7" fill="#ed8ce6" opacity="0.4"/>
  <circle cx="245" cy="55" r="0.6" fill="#ed8ce6" opacity="0.35"/>
  <circle cx="75" cy="75" r="1.3" fill="#e2ed77" opacity="0.45"/>
  <circle cx="155" cy="160" r="0.5" fill="#ed8ce6" opacity="0.25"/>
  <circle cx="295" cy="230" r="1.4" fill="#e2ed77" opacity="0.55"/>
  <circle cx="40" cy="350" r="0.6" fill="#ed8ce6" opacity="0.3"/>
  <circle cx="130" cy="285" r="1" fill="#ed8ce6" opacity="0.45"/>
  <circle cx="215" cy="355" r="0.8" fill="#e2ed77" opacity="0.35"/>
</svg>
