<svg xmlns="http://www.w3.org/2000/svg" viewBox="0 0 288 24" style="display:none">
  <!-- Zodiac Sprite — 12 signes, style Hybride (glyphe + halo cercle) -->
  <!-- viewBox par signe : 0 0 24 24 — utilise via <use href="#sign-xxx"> -->

  <defs>
    <symbol id="sign-aries" viewBox="0 0 24 24">
      <circle cx="12" cy="12" r="11.5" fill="none" stroke="currentColor" stroke-width="0.4" class="halo"/>
      <path d="M7 8c0-2 1.5-3.5 3-3.5s2 1 2 2.5v6m0-6c0-0 0-2.5 2-2.5s3 1.5 3 3.5" fill="none" stroke="currentColor" stroke-width="1" stroke-linecap="round"/>
    </symbol>

    <symbol id="sign-taurus" viewBox="0 0 24 24">
      <circle cx="12" cy="12" r="11.5" fill="none" stroke="currentColor" stroke-width="0.4" class="halo"/>
      <path d="M7 7c0 0-2-1-3 1s1 4 4 4h8c3 0 5-2 4-4s-3-1-3-1m-6 5v5m-3 0h6" fill="none" stroke="currentColor" stroke-width="1" stroke-linecap="round" stroke-linejoin="round"/>
    </symbol>

    <symbol id="sign-gemini" viewBox="0 0 24 24">
      <circle cx="12" cy="12" r="11.5" fill="none" stroke="currentColor" stroke-width="0.4" class="halo"/>
      <path d="M8 4v16M16 4v16M8 4c0 0 2 2 4 2s4-2 4-2M8 20c0 0 2-2 4-2s4 2 4 2" fill="none" stroke="currentColor" stroke-width="1" stroke-linecap="round" stroke-linejoin="round"/>
    </symbol>

    <symbol id="sign-cancer" viewBox="0 0 24 24">
      <circle cx="12" cy="12" r="11.5" fill="none" stroke="currentColor" stroke-width="0.4" class="halo"/>
      <path d="M4 8c2 3 6 3 8 0s6-3 8 0M4 16c2-3 6-3 8 0s6 3 8 0M8 10a1.5 1.5 0 1 1-3 0 1.5 1.5 0 0 1 3 0zm11 4a1.5 1.5 0 1 1-3 0 1.5 1.5 0 0 1 3 0z" fill="none" stroke="currentColor" stroke-width="1" stroke-linecap="round"/>
    </symbol>

    <symbol id="sign-leo" viewBox="0 0 24 24">
      <circle cx="12" cy="12" r="11.5" fill="none" stroke="currentColor" stroke-width="0.4" class="halo"/>
      <path d="M16 4c-2 0-4 2-4 4 0 3 4 5 4 8 0 2-2 4-5 4s-5-2-5-4c0-1 1-2 2-2s2 1 2 2-1 2-2 2M16 4c2 0 3 1 3 3" fill="none" stroke="currentColor" stroke-width="1" stroke-linecap="round" stroke-linejoin="round"/>
    </symbol>

    <symbol id="sign-virgo" viewBox="0 0 24 24">
      <circle cx="12" cy="12" r="11.5" fill="none" stroke="currentColor" stroke-width="0.4" class="halo"/>
      <path d="M6 4v16M6 6c2-2 5-2 6 0v14M12 6c2-2 5-2 6 0v7c0 2-2 3-3 3M6 20c1 0 3-1 3-3" fill="none" stroke="currentColor" stroke-width="1" stroke-linecap="round" stroke-linejoin="round"/>
    </symbol>

    <symbol id="sign-libra" viewBox="0 0 24 24">
      <circle cx="12" cy="12" r="11.5" fill="none" stroke="currentColor" stroke-width="0.4" class="halo"/>
      <path d="M4 16h16M8 16V9m8 0v7M8 9c0-2.5 1.8-4 4-4s4 1.5 4 4M4 20h16" fill="none" stroke="currentColor" stroke-width="1" stroke-linecap="round" stroke-linejoin="round"/>
    </symbol>

    <symbol id="sign-scorpio" viewBox="0 0 24 24">
      <circle cx="12" cy="12" r="11.5" fill="none" stroke="currentColor" stroke-width="0.4" class="halo"/>
      <path d="M5 4v16M5 6c2-2 5-2 6 0v10M11 6c2-2 5-2 6 0v7M17 13l3 3-3 3" fill="none" stroke="currentColor" stroke-width="1" stroke-linecap="round" stroke-linejoin="round"/>
    </symbol>

    <symbol id="sign-sagittarius" viewBox="0 0 24 24">
      <circle cx="12" cy="12" r="11.5" fill="none" stroke="currentColor" stroke-width="0.4" class="halo"/>
      <path d="M4 20L20 4M14 4h6v6M8 14l-4 6 6-4" fill="none" stroke="currentColor" stroke-width="1" stroke-linecap="round" stroke-linejoin="round"/>
    </symbol>

    <symbol id="sign-capricorn" viewBox="0 0 24 24">
      <circle cx="12" cy="12" r="11.5" fill="none" stroke="currentColor" stroke-width="0.4" class="halo"/>
      <path d="M6 20V8c0-2 2-4 4-4s3 2 3 4v6c0 2 2 4 4 4s3-2 3-4V8" fill="none" stroke="currentColor" stroke-width="1" stroke-linecap="round" stroke-linejoin="round"/>
    </symbol>

    <symbol id="sign-aquarius" viewBox="0 0 24 24">
      <circle cx="12" cy="12" r="11.5" fill="none" stroke="currentColor" stroke-width="0.4" class="halo"/>
      <path d="M4 8c2-2 4-2 6 0s4 2 6 0 4-2 4 0M4 14c2-2 4-2 6 0s4 2 6 0 4-2 4 0" fill="none" stroke="currentColor" stroke-width="1" stroke-linecap="round" stroke-linejoin="round"/>
    </symbol>

    <symbol id="sign-pisces" viewBox="0 0 24 24">
      <circle cx="12" cy="12" r="11.5" fill="none" stroke="currentColor" stroke-width="0.4" class="halo"/>
      <path d="M4 4c3 4 3 12 0 16M20 4c-3 4-3 12 0 16M4 12h16" fill="none" stroke="currentColor" stroke-width="1" stroke-linecap="round" stroke-linejoin="round"/>
    </symbol>
  </defs>
</svg>
